<!DOCTYPE svg PUBLIC "-//W3C//DTD SVG 1.1//EN" "http://www.w3.org/Graphics/SVG/1.1/DTD/svg11.dtd">
<!-- Uploaded to: SVG Repo, www.svgrepo.com, Transformed by: SVG Repo Mixer Tools -->
<svg fill="#000000" width="800px" height="800px" viewBox="0 0 24 24" id="strikethrough-square-2" data-name="Flat Color" xmlns="http://www.w3.org/2000/svg" class="icon flat-color">
<g id="SVGRepo_bgCarrier" stroke-width="0"/>
<g id="SVGRepo_tracerCarrier" stroke-linecap="round" stroke-linejoin="round"/>
<g id="SVGRepo_iconCarrier">
<rect id="primary" x="2" y="2" width="20" height="20" rx="2" style="fill: #101828;"/>
<path id="secondary" d="M17,11H12.18l-1.34-.5a1.29,1.29,0,0,1-.47-2.11A1.3,1.3,0,0,1,11.29,8H12.5a1.49,1.49,0,0,1,1.2.6,1,1,0,0,0,1.6-1.2A3.48,3.48,0,0,0,12.5,6H11.29A3.28,3.28,0,0,0,8,9.29,3.27,3.27,0,0,0,8.49,11H7a1,1,0,0,0,0,2h4.82l1.34.5a1.29,1.29,0,0,1-.45,2.5H11.5a1.49,1.49,0,0,1-1.2-.6,1,1,0,1,0-1.6,1.2A3.48,3.48,0,0,0,11.5,18h1.21a3.28,3.28,0,0,0,2.8-5H17a1,1,0,0,0,0-2Z" style="fill: #615fff;"/>
</g>
</svg>